<svg width="31" height="47" viewBox="0 0 31 47" fill="none" xmlns="http://www.w3.org/2000/svg">
<path fill-rule="evenodd" clip-rule="evenodd" d="M14.0858 0.585786C14.8669 -0.195262 16.1332 -0.195262 16.9142 0.585786L29.6422 13.3137C30.4232 14.0948 30.4232 15.3611 29.6422 16.1421C28.8611 16.9232 27.5948 16.9232 26.8137 16.1421L17.5 6.82843V17.2372C17.5 18.9979 17.9238 20.7722 18.4963 22.7424C18.6043 23.1142 18.719 23.4969 18.8364 23.8884C19.3154 25.4864 19.8386 27.2313 20.1298 28.9828C20.5886 31.7423 20.0992 34.0523 19.6896 35.986C19.6136 36.3445 19.5404 36.6901 19.4765 37.0232C19.0692 39.1457 18.8737 41.2524 20.0267 44.2903C20.4186 45.323 19.8992 46.4779 18.8665 46.8699C17.8339 47.2618 16.679 46.7424 16.287 45.7097C14.7832 41.7476 15.0567 38.8309 15.5482 36.2695C15.6334 35.8251 15.7202 35.4064 15.8033 35.0054C16.1979 33.1018 16.5096 31.5976 16.1839 29.6388C15.9384 28.162 15.5096 26.7281 15.0397 25.1571C14.9135 24.7353 14.7844 24.3035 14.6551 23.8584C14.0676 21.8364 13.5 19.6009 13.5 17.2372V6.82843L4.18631 16.1421C3.40526 16.9232 2.13893 16.9232 1.35788 16.1421C0.576833 15.3611 0.576833 14.0948 1.35788 13.3137L14.0858 0.585786Z" fill="#547793"/>
</svg>
