<svg width="152" height="67" viewBox="0 0 152 67" fill="none" xmlns="http://www.w3.org/2000/svg">
<path d="M146.286 25.6668C135.224 25.768 124.563 19.874 114.155 15.6046C102.871 10.9755 91.1532 8.93924 79.4687 6.91057C61.345 3.76391 41.5252 1.06664 24.0944 9.65834C18.561 12.3858 13.6758 15.6077 8.84669 20.0192C7.40627 21.3351 4.35676 23.3056 3.97136 25.8919C3.16042 31.3339 4.3384 35.4455 7.87138 38.6331C17.8786 47.6622 33.1067 49.7623 44.6943 53.1805C67.0762 59.7827 89.5441 63.3058 112.472 63.0962C125.718 62.9751 132.261 61.7186 145.457 60.3343C145.457 60.3343 150.886 54.7242 146.491 48.0859C139.994 38.2732 140.757 33.9396 132.414 27.0489C127.206 22.747 122.665 20.8631 116.856 18.6732" stroke="#45AA67" stroke-width="6" stroke-linecap="round"/>
</svg>
