<svg width="159" height="57" viewBox="0 0 159 57" fill="none" xmlns="http://www.w3.org/2000/svg">
<path d="M135.646 13.2939C123.47 13.2939 111.167 9.88812 99.3691 7.62591C86.4474 5.14815 73.1436 3.76157 59.8396 3.53239C49.4189 3.35289 36.7563 1.92799 26.6744 4.64881C19.9427 6.4655 15.1467 9.77213 9.63218 13.1794C3.99572 16.6619 1.77286 20.9573 3.65678 26.7194C4.90358 30.5329 11.3209 34.7957 15.3601 36.7099C22.159 39.9321 28.3179 43.8589 35.7259 46.271C44.5225 49.1352 53.7616 50.1662 63.0925 51.166C68.7544 51.7727 74.3153 51.7428 79.9933 52.0534C87.1125 52.4429 94.0491 53.3648 101.208 53.5134C111.309 53.7231 121.355 54 131.474 54C137.663 54 144.639 53.8234 150.284 51.5382C155.889 49.2692 155.75 42.9174 155.976 38.4275C156.225 33.4941 154.532 30.532 150.248 26.9484C144.202 21.8897 136.469 15.5772 128.009 13.2939" stroke="#45AA67" stroke-width="6" stroke-linecap="round"/>
</svg>
