<svg width="95" height="56" viewBox="0 0 95 56" fill="none" xmlns="http://www.w3.org/2000/svg">
<path d="M79.1526 9.93713C72.1512 9.93713 65.4593 8.77296 58.6007 6.88649C47.1219 3.72925 34.7789 2.84112 23.0398 3.02235C14.3436 3.15661 -1.21801 10.7386 4.07166 24.8965C5.75458 29.4009 7.44981 34.5021 10.8743 37.3477C16.0675 41.663 22.8931 43.0151 28.8707 44.511C43.6094 48.1994 58.6475 53.3128 73.7896 52.985C75.9846 52.9375 78.0304 52.4872 80.1064 51.6066C83.874 50.0083 86.0644 45.1512 88.0788 41.1666C89.2929 38.7649 91.2362 34.9279 91.822 31.9243C92.3815 29.0558 91.6064 28.2351 89.7165 26.3654C85.9985 22.6871 81.2204 19.7219 77.065 17.1683C72.4182 14.3127 67.2325 11.0333 62.128 9.43999C59.8825 8.73909 57.1699 8.31012 54.8575 8.31012" stroke="#45AA67" stroke-width="6" stroke-linecap="round"/>
</svg>
