<svg width="43" height="43" viewBox="0 0 43 43" fill="none" xmlns="http://www.w3.org/2000/svg">
<path fill-rule="evenodd" clip-rule="evenodd" d="M28.0992 14.9952C28.6487 14.9404 29.0499 14.4505 28.9951 13.901C28.9404 13.3514 28.4505 12.9503 27.9009 13.005C27.0459 13.0902 26.3153 13.6104 25.8023 14.0413C25.5288 14.2711 25.2731 14.5147 25.0513 14.7294L24.9213 14.8556C24.7492 15.0229 24.6062 15.1618 24.4744 15.2792C23.2845 16.338 22.2836 17.5777 21.3373 18.7498C20.9589 19.2185 20.5893 19.6763 20.2197 20.1075C20.1783 20.1559 20.1367 20.204 20.0949 20.2518C18.2698 18.8574 16.5194 17.4214 14.7959 15.8694C14.6947 15.7783 14.575 15.6549 14.4085 15.4834L14.3964 15.4709C14.235 15.3046 14.0404 15.1049 13.832 14.9151C13.4581 14.5748 12.8493 14.0812 12.1012 14.0052C11.5517 13.9494 11.061 14.3495 11.0052 14.899C10.9494 15.4484 11.3495 15.9391 11.899 15.995L11.899 15.995C11.8994 15.995 11.9135 15.9967 11.9436 16.0081C11.9754 16.0201 12.0192 16.0407 12.0755 16.0746C12.1918 16.1446 12.328 16.2506 12.4857 16.3942C12.6425 16.5369 12.7972 16.6948 12.9611 16.8638L12.9954 16.8991L12.9954 16.8991C13.14 17.0482 13.3042 17.2175 13.4576 17.3557C15.1785 18.9053 16.9217 20.3387 18.7288 21.7247C18.5043 21.9604 18.2754 22.2016 18.0413 22.4543C17.2922 23.263 16.5376 24.1423 15.9242 25.1553C15.6244 25.6503 15.2466 26.0881 14.8047 26.5538C14.6866 26.6783 14.5598 26.8087 14.4282 26.9441L14.4281 26.9441C14.0922 27.2897 13.7252 27.6672 13.3928 28.0585C13.2999 28.1678 13.2021 28.2612 13.0686 28.3886L13.0686 28.3886L13.0686 28.3886C13.0009 28.4533 12.9239 28.5267 12.8338 28.6155C12.6111 28.8347 12.3074 29.1509 12.1063 29.5515C11.8585 30.045 12.0578 30.646 12.5514 30.8938C13.045 31.1416 13.646 30.9423 13.8938 30.4487C13.9365 30.3636 14.0321 30.2423 14.2369 30.0407C14.2748 30.0034 14.3209 29.9593 14.372 29.9105L14.3724 29.9102C14.5364 29.7535 14.7523 29.5473 14.917 29.3534C15.2039 29.0157 15.4957 28.7156 15.8114 28.3911L15.8114 28.391C15.954 28.2444 16.1014 28.0928 16.2554 27.9305C16.7282 27.4324 17.2231 26.8713 17.635 26.1913C18.1426 25.353 18.788 24.5912 19.5085 23.8135C19.7382 23.5655 19.9816 23.3098 20.2304 23.0485L20.2305 23.0484C20.2663 23.0108 20.3023 22.973 20.3383 22.9352C20.3924 22.9751 20.4467 23.0151 20.5009 23.055C21.1803 23.5546 21.8034 24.0801 22.451 24.6262C22.6669 24.8083 22.8856 24.9927 23.1099 25.1792C23.9893 25.9101 24.9293 26.6488 26.0171 27.2707C26.5567 27.5791 27.0649 27.8819 27.4866 28.2361C27.9038 28.5864 28.1772 28.9394 28.3068 29.3198C28.4832 29.8376 28.7566 30.4899 29.5471 30.8916C30.0394 31.1418 30.6414 30.9454 30.8916 30.4531C31.1418 29.9607 30.9454 29.3588 30.4531 29.1086C30.3898 29.0764 30.3695 29.0525 30.3496 29.0234C30.3151 28.9726 30.2707 28.8825 30.2 28.6749C29.9117 27.8286 29.3525 27.1913 28.7728 26.7045C28.1976 26.2215 27.5448 25.8402 27.0097 25.5344C26.0773 25.0013 25.2451 24.3532 24.3884 23.6411C24.188 23.4746 23.9846 23.303 23.7777 23.1285C23.1223 22.5757 22.4326 21.9939 21.6997 21.454C21.7126 21.439 21.7255 21.424 21.7383 21.409C22.1913 20.8805 22.6056 20.3668 23.0072 19.869C23.9072 18.7534 24.7429 17.7174 25.8039 16.7733C25.972 16.6237 26.1553 16.4454 26.3296 16.276L26.4427 16.1661C26.6596 15.9561 26.8727 15.7541 27.0887 15.5727C27.5548 15.1812 27.8859 15.0164 28.0992 14.9952Z" fill="#547793"/>
</svg>
