<svg width="72" height="72" viewBox="0 0 72 72" fill="none" xmlns="http://www.w3.org/2000/svg">
<g clip-path="url(#clip0_262_596)">
<path d="M46.089 7.90868C40.56 2.37668 32.892 -0.500319 25.047 0.0696812C11.469 1.02968 0 13.7677 0 27.8887V43.0027C0 49.0657 4.926 54.0007 10.983 54.0007H24.414C39.975 54.0007 52.941 42.9997 53.931 28.9537C54.486 21.1147 51.627 13.4437 46.092 7.90568L46.089 7.90868ZM27 43.5007C24.93 43.5007 23.25 41.8207 23.25 39.7507C23.25 37.6807 24.93 36.0007 27 36.0007C29.07 36.0007 30.75 37.6807 30.75 39.7507C30.75 41.8207 29.07 43.5007 27 43.5007ZM31.341 28.8877C30 29.6257 30 29.8417 30 30.0007C30 31.6597 28.656 33.0007 27 33.0007C25.344 33.0007 24 31.6597 24 30.0007C24 26.0767 27.114 24.3637 28.443 23.6317C29.313 23.1547 30.228 22.0267 29.949 20.4337C29.742 19.2577 28.743 18.2587 27.57 18.0547C26.652 17.8867 25.764 18.1207 25.074 18.7027C24.39 19.2727 24 20.1127 24 21.0037C24 22.6627 22.656 24.0037 21 24.0037C19.344 24.0037 18 22.6627 18 21.0037C18 18.3367 19.173 15.8227 21.216 14.1067C23.259 12.3907 25.947 11.6647 28.605 12.1477C32.232 12.7807 35.217 15.7627 35.856 19.3987C36.525 23.2147 34.71 27.0277 31.338 28.8907L31.341 28.8877ZM72 48.0007V63.0007C72 67.9717 67.971 72.0007 63 72.0007H48C39.135 72.0007 31.395 67.1557 27.24 59.9887L27.36 59.8687C44.721 58.5427 58.77 45.6367 59.916 29.3767C59.967 28.6747 59.946 27.9787 59.952 27.2797L59.991 27.2407C67.158 31.3957 72 39.1357 72 48.0007Z" fill="#547793"/>
</g>
<defs>
<clipPath id="clip0_262_596">
<rect width="72" height="72" fill="white"/>
</clipPath>
</defs>
</svg>
