<svg width="72" height="72" viewBox="0 0 72 72" fill="none" xmlns="http://www.w3.org/2000/svg">
<g clip-path="url(#clip0_262_592)">
<path d="M65.976 63.504C65.934 63.972 65.886 64.329 65.835 64.5C64.545 68.838 60.525 72 55.77 72H18.72C20.16 69.852 21 67.272 21 64.5C21 60.357 24.357 57 28.5 57H59.994C63.504 57 66.291 60.009 65.973 63.504H65.976ZM45.9 35.532L54.024 30.096L62.286 35.475C63.351 36.168 64.743 36.114 65.754 35.337C66.765 34.56 67.173 33.228 66.771 32.019L63.834 23.079L70.932 17.298C71.895 16.485 72.249 15.159 71.817 13.974C71.385 12.789 70.257 12.003 69 12.003H59.997L56.811 3.063C56.373 1.89 55.251 1.11 54 1.11C52.749 1.11 51.627 1.89 51.189 3.063L48.003 12.003H39C37.743 12.003 36.618 12.789 36.186 13.968C35.751 15.15 36.102 16.473 37.062 17.289L44.193 23.091L41.37 32.139C40.989 33.354 41.415 34.677 42.432 35.442C42.963 35.841 43.596 36.042 44.232 36.042C44.814 36.042 45.396 35.874 45.9 35.535V35.532ZM57 44.793V51H28.503C21.039 51 15.012 57.051 15 64.515C14.991 68.955 11.124 72.492 6.57 71.946C2.733 71.484 0 67.947 0 64.08V14.982C0 6.699 6.717 0 15 0H42.39C37.605 2.649 33.831 6.888 31.761 12H15C13.344 12 12 13.341 12 15C12 16.659 13.344 18 15 18H30.207C30.084 18.984 30 19.983 30 21C30 22.017 30.084 23.016 30.207 24H15C13.344 24 12 25.341 12 27C12 28.659 13.344 30 15 30H31.761C35.322 38.793 43.932 45 54 45C55.017 45 56.016 44.916 57 44.793ZM33 39C33 37.341 31.656 36 30 36H15C13.344 36 12 37.341 12 39C12 40.659 13.344 42 15 42H30C31.656 42 33 40.659 33 39Z" fill="#C0CACC"/>
</g>
<defs>
<clipPath id="clip0_262_592">
<rect width="72" height="72" fill="white"/>
</clipPath>
</defs>
</svg>
