<svg width="47" height="57" viewBox="0 0 47 57" fill="none" xmlns="http://www.w3.org/2000/svg">
<path d="M12.2997 50.2245C11.7813 44.2611 8.26923 39.1495 7.60415 33.1629C7.05709 28.2387 6.09639 23.6358 6.09639 18.6003C6.09639 15.6553 5.34557 11.6445 8.03494 9.55249C9.78586 8.19048 13.0623 9.03941 14.0229 10.6727C15.9961 14.0275 18.5031 18.1662 18.5031 22.3056C18.5031 26.7481 19.8213 23.3338 20.8724 21.0561C22.0921 18.4131 24.4481 14.263 27.0327 12.8269C31.6152 10.2807 33.3726 5.66263 39.4394 6.01954C41.2209 6.12435 40.9902 10.2018 40.9902 11.4482C40.9902 14.6826 39.3517 16.9646 37.1131 19.2035C31.8909 24.4265 28.0203 30.7915 23.1556 36.265C19.6905 40.1637 18.4335 46.4861 16.1768 51" stroke="#E24412" stroke-width="12" stroke-linecap="round"/>
</svg>
