<svg width="72" height="72" viewBox="0 0 72 72" fill="none" xmlns="http://www.w3.org/2000/svg">
<g clip-path="url(#clip0_262_600)">
<path d="M44.9999 52.7223V57.0003C44.9999 65.2833 38.2829 72.0003 29.9999 72.0003H22.1939C17.6159 72.0003 13.2239 70.1823 9.98687 66.9453L1.75787 59.0973C-0.819126 56.5203 -0.561126 52.1823 2.52887 49.9563C4.95287 48.2103 8.35787 48.7233 10.4699 50.8383L11.9999 52.4133V28.6263C11.9999 26.2023 13.8629 24.1173 16.2809 24.0033C18.8639 23.8803 20.9999 25.9413 20.9999 28.4973V43.5003C20.9999 44.3253 21.6689 44.9973 22.4969 44.9973H22.5329C23.3609 44.9973 24.0299 44.3283 24.0299 43.5003C24.0209 36.5763 24.0119 27.1473 24.0119 25.4883C24.0119 23.0073 26.0249 20.9973 28.5059 20.9973C30.9869 20.9973 33.0119 23.0223 32.9999 25.5123L33.0089 43.5003C33.0089 44.3253 33.6779 44.9943 34.5059 44.9943C35.3309 44.9943 36.0029 44.3253 36.0029 43.4973V31.6203C36.0029 29.1963 37.8689 27.1083 40.2929 26.9973C42.8759 26.8803 45.0029 28.9413 45.0029 31.4943V31.5153V52.7133L44.9999 52.7223ZM69.4709 28.9593C67.0469 27.2133 63.6419 27.7263 61.5299 29.8413L59.9999 31.4163V7.62631C59.9999 5.20231 58.1369 3.11731 55.7189 3.00331C53.1359 2.88031 50.9999 4.94131 50.9999 7.49731V22.4823C50.9999 23.3193 50.3219 23.9973 49.4849 23.9973C48.6479 23.9973 47.9699 23.3193 47.9699 22.4823C47.9789 15.5583 47.9879 6.14431 47.9879 4.48831C47.9879 2.00731 45.9749 -0.00268555 43.4939 -0.00268555C41.0129 -0.00268555 38.9879 2.02231 38.9999 4.51231L38.9909 21.1233C42.1529 20.6793 45.5819 21.7263 47.9249 24.0753C49.8449 25.9983 50.9279 28.5333 50.9909 31.2423V50.9343C55.1369 50.6463 59.0549 48.8913 62.0099 45.9363L70.2389 38.0883C72.8159 35.5113 72.5579 31.1733 69.4679 28.9473L69.4709 28.9593ZM28.5029 15.0033C31.3169 15.0033 33.9599 16.1013 35.9429 18.0963C35.9639 18.1173 35.9759 18.1413 35.9969 18.1623V10.5003C35.9969 8.01631 33.9809 6.00331 31.4969 6.00331C29.0129 6.00331 26.9969 8.02231 26.9999 10.5063V15.1713C27.4979 15.0993 27.9869 15.0033 28.5029 15.0033Z" fill="#547793"/>
</g>
<defs>
<clipPath id="clip0_262_600">
<rect width="72" height="72" fill="white"/>
</clipPath>
</defs>
</svg>
