<svg width="45" height="45" viewBox="0 0 45 45" fill="none" xmlns="http://www.w3.org/2000/svg">
<path d="M22.5 8.76086C26.9236 8.76086 27.4483 8.77743 29.1948 8.85751C31.0007 8.94035 32.8605 9.35178 34.1762 10.6676C35.5044 11.9957 35.9034 13.8375 35.9863 15.649C36.0664 17.3955 36.0829 17.9202 36.0829 22.3438C36.0829 26.7674 36.0664 27.2921 35.9863 29.0386C35.9048 30.8348 35.4837 32.7125 34.1762 34.02C32.848 35.3482 31.0076 35.7472 29.1948 35.8301C27.4483 35.9101 26.9236 35.9267 22.5 35.9267C18.0764 35.9267 17.5517 35.9101 15.8052 35.8301C14.0228 35.7486 12.1202 35.3178 10.8238 34.02C9.50248 32.6987 9.09657 30.839 9.01373 29.0386C8.93365 27.2921 8.91708 26.7674 8.91708 22.3438C8.91708 17.9202 8.93365 17.3955 9.01373 15.649C9.09519 13.8596 9.52043 11.9709 10.8238 10.6676C12.1492 9.34212 13.9979 8.94035 15.8052 8.85751C17.5517 8.77743 18.0764 8.76086 22.5 8.76086ZM22.5 5.77588C18.0004 5.77588 17.4357 5.79521 15.6685 5.87529C13.1074 5.99264 10.5642 6.70506 8.71274 8.55652C6.85438 10.4149 6.14886 12.9525 6.03151 15.5123C5.95143 17.2795 5.9321 17.8442 5.9321 22.3438C5.9321 26.8433 5.95143 27.408 6.03151 29.1753C6.14886 31.7336 6.86404 34.2837 8.71274 36.131C10.5697 37.988 13.1115 38.6949 15.6685 38.8123C17.4357 38.8924 18.0004 38.9117 22.5 38.9117C26.9996 38.9117 27.5643 38.8924 29.3315 38.8123C31.8912 38.6949 34.4372 37.9811 36.2873 36.131C38.147 34.2713 38.8511 31.735 38.9685 29.1753C39.0486 27.408 39.0679 26.8433 39.0679 22.3438C39.0679 17.8442 39.0486 17.2795 38.9685 15.5123C38.8511 12.9512 38.1373 10.4066 36.2873 8.55652C34.433 6.7023 31.8843 5.99126 29.3315 5.87529C27.5643 5.79521 26.9996 5.77588 22.5 5.77588Z" fill="#031A2C"/>
<path d="M22.5 13.8359C17.8016 13.8359 13.9924 17.6452 13.9924 22.3436C13.9924 27.0419 17.8016 30.8512 22.5 30.8512C27.1984 30.8512 31.0076 27.0419 31.0076 22.3436C31.0076 17.6452 27.1984 13.8359 22.5 13.8359ZM22.5 27.8662C19.4501 27.8662 16.9774 25.3934 16.9774 22.3436C16.9774 19.2937 19.4501 16.8209 22.5 16.8209C25.5499 16.8209 28.0226 19.2937 28.0226 22.3436C28.0226 25.3934 25.5499 27.8662 22.5 27.8662Z" fill="#031A2C"/>
<path d="M31.3445 15.4875C32.4425 15.4875 33.3326 14.5974 33.3326 13.4994C33.3326 12.4014 32.4425 11.5112 31.3445 11.5112C30.2465 11.5112 29.3563 12.4014 29.3563 13.4994C29.3563 14.5974 30.2465 15.4875 31.3445 15.4875Z" fill="#031A2C"/>
</svg>
