<svg width="150" height="150" viewBox="0 0 150 150" fill="none" xmlns="http://www.w3.org/2000/svg">
<mask id="mask0_817_410" style="mask-type:luminance" maskUnits="userSpaceOnUse" x="11" y="39" width="128" height="44">
<path d="M11.8208 39.5381H138.277V82.8397H11.8208V39.5381Z" fill="white"/>
</mask>
<g mask="url(#mask0_817_410)">
<path d="M11.8208 39.5381H138.247V82.8397H11.8208V39.5381Z" fill="#547794"/>
</g>
<path d="M18.5273 69.2383H30.6912V65.7496H22.6079V61.7939H29.7107V58.358H22.6079V54.608H30.4079V51.1443H18.5273V69.2383Z" fill="white"/>
<path d="M43.5281 69.5997C48.2281 69.5997 51.0975 66.653 51.0975 61.7939V51.1443H46.9892V61.5103C46.9892 64.2763 45.8281 65.6968 43.5281 65.6968C41.2309 65.6968 40.067 64.2763 40.067 61.5103V51.1443H35.9614V61.7939C35.9614 66.653 38.8281 69.5997 43.5281 69.5997Z" fill="white"/>
<path d="M65.6367 69.5997C71.6034 69.5997 75.4506 65.1798 75.0395 58.9779H64.8367V62.1553H70.7006C70.1839 64.3542 68.3228 65.8275 65.6895 65.8275C62.3839 65.8275 60.2645 63.4479 60.2645 60.1927C60.2645 56.8847 62.4617 54.558 65.6367 54.558C67.6506 54.558 69.3312 55.4865 70.2089 57.0654H74.6256C73.5395 53.2654 69.9506 50.783 65.5589 50.783C60.0589 50.783 56.1589 54.6859 56.1589 60.1927C56.1589 65.7218 60.0839 69.5997 65.6367 69.5997Z" fill="white"/>
<path d="M80.2554 69.2383H92.4193V65.7496H84.3359V61.7939H91.4387V58.358H84.3359V54.608H92.1359V51.1443H80.2554V69.2383Z" fill="white"/>
<path d="M97.8701 69.2383H101.951V58.1495L109.931 69.2383H113.417V51.1443H109.337V62.1552L101.356 51.1443H97.8701V69.2383Z" fill="white"/>
<path d="M119.72 69.2383H131.884V65.7496H123.801V61.7939H130.904V58.358H123.801V54.608H131.601V51.1443H119.72V69.2383Z" fill="white"/>
<path d="M15.5337 109.73H28.8254V105.26H20.9476V102.333H27.7976V97.9434H20.9476V95.1803H28.5281V90.7659H15.5337V109.73Z" fill="#547794"/>
<path d="M32.0459 109.73H37.4598V100.059L44.6626 109.73H49.1015V90.7659H43.7153V100.384L36.5126 90.7659H32.0459V109.73Z" fill="#547794"/>
<path d="M62.175 110.136C68.7 110.136 72.7889 105.396 72.1917 98.7302H61.2278V102.578H66.4528C65.9112 104.176 64.3973 105.26 62.2306 105.26C59.1973 105.26 57.4389 103.12 57.4389 100.248C57.4389 97.268 59.3612 95.236 62.175 95.236C63.8556 95.236 65.2889 95.967 66.0195 97.1596H71.8417C70.7306 93.0149 66.8862 90.3601 62.0945 90.3601C56.1389 90.3601 52.05 94.4242 52.05 100.248C52.05 106.1 56.1667 110.136 62.175 110.136Z" fill="#547794"/>
<path d="M75.114 109.73H88.3251V104.662H80.5835V90.7659H75.114V109.73Z" fill="#547794"/>
<path d="M91.0042 109.73H96.4736V90.7659H91.0042V109.73Z" fill="#547794"/>
<path d="M107.273 110.136C111.984 110.136 114.773 107.915 114.773 104.176C114.773 101.035 112.742 99.1917 108.14 98.1603C105.703 97.6211 104.812 97.0234 104.812 96.0477C104.812 95.1275 105.623 94.5577 106.895 94.5577C108.412 94.5577 109.278 95.3444 109.278 96.7788H114.42C114.42 92.8786 111.442 90.3601 106.787 90.3601C102.32 90.3601 99.559 92.5812 99.559 96.1561C99.559 99.3529 101.642 101.332 105.92 102.144C108.223 102.605 109.331 103.309 109.331 104.393C109.331 105.341 108.52 105.883 107.192 105.883C105.623 105.883 104.703 105.043 104.703 103.581H99.4229C99.4229 107.67 102.348 110.136 107.273 110.136Z" fill="#547794"/>
<path d="M129.093 109.73H134.562V90.7659H129.093V97.5654H123.246V90.7659H117.776V109.73H123.246V102.605H129.093V109.73Z" fill="#547794"/>
</svg>
