<svg width="43" height="43" viewBox="0 0 43 43" fill="none" xmlns="http://www.w3.org/2000/svg">
<path fill-rule="evenodd" clip-rule="evenodd" d="M20.987 15.9155L20.987 15.9155C20.0532 15.9326 19.1106 15.9499 18.1551 15.9499H9.95715C9.40487 15.9499 8.95715 15.5021 8.95715 14.9499C8.95715 14.3976 9.40487 13.9499 9.95715 13.9499H18.1551C19.0311 13.9499 19.9299 13.9336 20.8411 13.917C22.9354 13.879 25.0951 13.8399 27.1947 13.9947C27.5927 14.024 28.0271 14.0439 28.4776 14.0646L28.4776 14.0646C29.2499 14.0999 30.0692 14.1374 30.8325 14.2284C30.9181 14.2386 31.0093 14.2488 31.1049 14.2594C31.6475 14.32 32.3319 14.3964 32.9459 14.5828C33.0035 14.6003 33.052 14.6179 33.0833 14.6295C33.5858 14.6823 33.9775 15.1074 33.9775 15.6239C33.9775 16.1762 33.5298 16.6239 32.9775 16.6239C32.7749 16.6239 32.6145 16.5831 32.4983 16.5444C32.4587 16.5312 32.417 16.5155 32.3981 16.5085L32.3912 16.5059C32.3703 16.4982 32.3658 16.4968 32.3651 16.4966C31.9427 16.3684 31.4731 16.3149 30.9248 16.2524L30.9248 16.2524L30.9246 16.2524C30.8181 16.2402 30.7085 16.2278 30.5958 16.2143C29.8811 16.1292 29.2203 16.1002 28.5203 16.0695L28.5203 16.0695C28.0557 16.0492 27.5739 16.0281 27.0477 15.9893C25.042 15.8414 23.0359 15.8781 20.987 15.9155ZM29.6263 21.9931C28.6889 22.2208 27.638 22.4761 26.5473 22.5122C24.924 22.5659 23.2537 22.5454 21.5943 22.3263C21.1667 22.2698 20.7523 22.2105 20.3465 22.1524L20.3464 22.1524L20.3463 22.1524C18.936 21.9505 17.631 21.7638 16.2462 21.7638H10.123C9.57076 21.7638 9.12305 21.3161 9.12305 20.7638C9.12305 20.2115 9.57076 19.7638 10.123 19.7638H16.2462C17.7877 19.7638 19.2764 19.9775 20.7091 20.1831C21.0955 20.2386 21.4779 20.2935 21.8562 20.3435C23.3644 20.5427 24.9141 20.5651 26.4812 20.5133C27.3612 20.4842 28.2316 20.2732 29.2254 20.0323L29.2985 20.0146C30.2855 19.7754 31.3967 19.511 32.5638 19.511C33.116 19.511 33.5638 19.9587 33.5638 20.511C33.5638 21.0633 33.116 21.511 32.5638 21.511C31.6694 21.511 30.7799 21.7135 29.7695 21.9583L29.6263 21.9931ZM15.3773 28.7879H15.3773L15.3778 28.7879C16.0292 28.7641 16.678 28.7404 17.323 28.7198C19.8432 28.639 22.3299 28.6031 24.8031 28.7737C25.0277 28.7892 25.2599 28.8077 25.498 28.8267L25.4983 28.8267C26.4938 28.906 27.592 28.9936 28.672 28.9037C28.9569 28.8799 29.2294 28.8094 29.4104 28.7626L29.4592 28.75C29.6725 28.6954 29.7766 28.6749 29.8586 28.6727C30.3557 28.659 30.8396 28.6635 31.3433 28.6682H31.3434C31.6052 28.6706 31.8725 28.6731 32.1497 28.6731C32.702 28.6731 33.1497 28.2253 33.1497 27.6731C33.1497 27.1208 32.702 26.6731 32.1497 26.6731C31.9121 26.6731 31.6648 26.6708 31.4121 26.6685C30.8855 26.6638 30.3358 26.6588 29.8036 26.6734C29.4706 26.6826 29.1655 26.7607 28.9669 26.8116L28.9632 26.8125C28.7298 26.8723 28.6142 26.9016 28.506 26.9106C27.6044 26.9856 26.7123 26.9153 25.7332 26.8382L25.733 26.8382C25.4755 26.8179 25.212 26.7971 24.9407 26.7784C22.3635 26.6006 19.7948 26.6396 17.259 26.7208C16.5939 26.7421 15.9326 26.7663 15.2739 26.7903L15.2738 26.7903C13.4064 26.8585 11.5605 26.9258 9.70898 26.9258C9.1567 26.9258 8.70898 27.3736 8.70898 27.9258C8.70898 28.4781 9.1567 28.9258 9.70898 28.9258C11.6002 28.9258 13.4993 28.8565 15.3773 28.7879Z" fill="#547793"/>
</svg>
