<svg width="28" height="47" viewBox="0 0 28 47" fill="none" xmlns="http://www.w3.org/2000/svg">
<path fill-rule="evenodd" clip-rule="evenodd" d="M15.0968 18.2013C15.0968 16.4333 13.6636 15 11.8956 15C10.1276 15 8.69431 16.4333 8.69431 18.2013C8.69431 19.9367 8.74957 21.6658 8.82456 23.3679H5.20127C3.43326 23.3679 2 24.8011 2 26.5692C2 28.3372 3.43326 29.7704 5.20127 29.7704H9.13822C9.20538 31.3272 9.25217 32.8581 9.25217 34.3791C9.25217 36.1471 10.6854 37.5804 12.4534 37.5804C14.2214 37.5804 15.6547 36.1471 15.6547 34.3791C15.6547 32.838 15.61 31.2966 15.5465 29.7704H23.0527C24.8207 29.7704 26.2539 28.3372 26.2539 26.5692C26.2539 24.8011 24.8207 23.3679 23.0527 23.3679H15.2336C15.1545 21.6267 15.0968 19.9115 15.0968 18.2013Z" fill="#E24412"/>
</svg>
