<svg width="28" height="47" viewBox="0 0 28 47" fill="none" xmlns="http://www.w3.org/2000/svg">
<path fill-rule="evenodd" clip-rule="evenodd" d="M17.4007 19.1273C17.4007 17.4002 16.0006 16 14.2734 16C12.5462 16 11.1461 17.4002 11.1461 19.1273C11.1461 20.7462 11.0092 22.4614 10.7506 24.183C9.00166 23.9955 7.19721 23.8606 5.3644 23.8606C3.63722 23.8606 2.23706 25.2607 2.23706 26.9879C2.23706 28.7151 3.63722 30.1152 5.3644 30.1152C6.67003 30.1152 7.97224 30.1956 9.29703 30.3222C8.86589 31.6227 8.36688 32.8558 7.80807 33.9734C7.03565 35.5182 7.66182 37.3967 9.20666 38.1692C10.7515 38.9416 12.63 38.3154 13.4024 36.7706C14.2714 35.0326 15.0102 33.1093 15.6073 31.1021C18.0259 31.412 20.5775 31.6873 23.1811 31.6873C24.9083 31.6873 26.3084 30.2871 26.3084 28.56C26.3084 26.8328 24.9083 25.4326 23.1811 25.4326C21.1366 25.4326 19.0963 25.2333 16.957 24.9677C17.2495 22.9753 17.4007 20.9986 17.4007 19.1273Z" fill="#E24412"/>
</svg>
