<svg width="28" height="47" viewBox="0 0 28 47" fill="none" xmlns="http://www.w3.org/2000/svg">
<path fill-rule="evenodd" clip-rule="evenodd" d="M16.0066 15.1576C16.0066 13.2289 14.443 11.6653 12.5142 11.6653C10.5855 11.6653 9.02191 13.2289 9.02191 15.1576V21.613H5.49233C3.56357 21.613 2 23.1766 2 25.1053C2 27.0341 3.56357 28.5977 5.49233 28.5977H9.02191V29.2019C9.02191 29.3638 9.00347 29.6454 8.96979 30.1598L8.94956 30.4699C8.90893 31.0961 8.86161 31.8919 8.85822 32.6875C8.85499 33.4473 8.8886 34.4011 9.07883 35.2948C9.17457 35.7446 9.33951 36.326 9.65429 36.9071C9.97048 37.4907 10.5454 38.2664 11.5376 38.7625C13.2627 39.6251 15.3605 38.9259 16.2231 37.2007C16.8414 35.9641 16.6572 34.536 15.8678 33.5087C15.8522 33.3157 15.8414 33.054 15.8428 32.7172C15.8452 32.1496 15.8798 31.5353 15.9196 30.9221C15.9246 30.844 15.9301 30.7618 15.9358 30.6767L15.9358 30.6767C15.9682 30.1922 16.0066 29.6173 16.0066 29.2019V28.5977H23.0477C24.9765 28.5977 26.5401 27.0341 26.5401 25.1053C26.5401 23.1766 24.9765 21.613 23.0477 21.613H16.0066V15.1576Z" fill="#E24412"/>
</svg>
