<svg width="28" height="47" viewBox="0 0 28 47" fill="none" xmlns="http://www.w3.org/2000/svg">
<path fill-rule="evenodd" clip-rule="evenodd" d="M15.2037 14.0867C15.2037 12.382 13.8218 11 12.117 11C10.4123 11 9.03036 12.382 9.03036 14.0867C9.03036 15.9822 9.13987 17.8166 9.32413 19.6064H6.73853C5.03381 19.6064 3.65186 20.9884 3.65186 22.6931C3.65186 24.3978 5.03381 25.7798 6.73853 25.7798H10.2309C10.549 27.5201 10.9023 29.2343 11.2537 30.9399L11.2538 30.9403C11.4311 31.801 11.608 32.6595 11.7797 33.5181C12.1141 35.1897 13.7402 36.2738 15.4118 35.9395C17.0834 35.6051 18.1675 33.979 17.8332 32.3074C17.6502 31.3922 17.4667 30.4984 17.2865 29.6206L17.2865 29.6206C17.0176 28.3104 16.756 27.036 16.5142 25.7798H21.2615C22.9662 25.7798 24.3482 24.3978 24.3482 22.6931C24.3482 20.9884 22.9662 19.6064 21.2615 19.6064H15.5313C15.3254 17.8073 15.2037 15.9852 15.2037 14.0867Z" fill="#E24412"/>
</svg>
