<svg width="28" height="47" viewBox="0 0 28 47" fill="none" xmlns="http://www.w3.org/2000/svg">
<path fill-rule="evenodd" clip-rule="evenodd" d="M17.7534 17.5261C17.7534 15.9888 16.5072 14.7426 14.9699 14.7426C13.4326 14.7426 12.1864 15.9888 12.1864 17.5261C12.1864 18.8996 12.1317 20.3374 12.0677 21.8532L12.0453 22.3791L12.0453 22.3791C12.0098 23.2119 11.9733 24.0665 11.945 24.9287H4.78353C3.24623 24.9287 2 26.1749 2 27.7122C2 29.2495 3.24623 30.4957 4.78353 30.4957H11.9598C12.0612 32.391 12.2925 34.3005 12.7545 36.1485C13.1274 37.6399 14.6387 38.5466 16.1301 38.1738C17.6215 37.8009 18.5282 36.2896 18.1554 34.7982C17.8195 33.4549 17.63 32.0164 17.5362 30.4957H18.3652C18.557 30.4957 18.7507 30.4933 18.9457 30.4909H18.9457C19.5432 30.4835 20.1531 30.476 20.7582 30.5368C20.9459 30.5556 21.0901 30.5779 21.1959 30.5986C22.0171 31.4647 23.3379 31.7334 24.4607 31.172C25.8357 30.4845 26.393 28.8125 25.7055 27.4375C25.1034 26.2332 24.0266 25.6884 23.3669 25.4408C22.6573 25.1745 21.9131 25.0577 21.3146 24.9976C20.3537 24.9011 19.2883 24.9165 18.6878 24.9252C18.5558 24.9271 18.4463 24.9287 18.3652 24.9287H17.5151C17.5414 24.164 17.5742 23.3949 17.6073 22.6176L17.6073 22.6175L17.6298 22.088C17.6937 20.5744 17.7534 19.0302 17.7534 17.5261ZM21.4108 30.6529C21.4351 30.662 21.4313 30.6627 21.4074 30.6517L21.4108 30.6529Z" fill="#E24412"/>
</svg>
