<svg width="74" height="74" viewBox="0 0 74 74" fill="none" xmlns="http://www.w3.org/2000/svg">
<g clip-path="url(#clip0_275_485)">
<path d="M13.1636 17.0069L31.3675 6.50299C32.6651 5.72415 34.1953 5.4264 35.6903 5.66186C37.1853 5.89731 38.5499 6.65096 39.5453 7.79095C40.1245 8.49158 40.544 9.31014 40.7743 10.1895C41.0047 11.0689 41.0404 11.988 40.8791 12.8826C40.7177 13.7772 40.3631 14.6259 39.8401 15.3694C39.317 16.1129 38.6381 16.7334 37.8506 17.1875L36.0386 18.2316C35.5762 18.5005 35.2389 18.9414 35.1005 19.4581C34.962 19.9748 35.0336 20.5252 35.2997 20.9893L39.012 27.4192C39.3383 27.9816 39.8046 28.4498 40.3657 28.7784C40.9267 29.107 41.5632 29.2847 42.2133 29.2942L44.3293 29.3176C46.7725 29.3334 49.1929 29.7899 51.474 30.6652C52.9735 31.239 54.2777 32.2294 55.2329 33.5199C56.188 34.8104 56.7544 36.347 56.8651 37.9487C57.0105 39.6127 56.678 41.2836 55.9064 42.765C55.1349 44.2464 53.9565 45.4768 52.5097 46.3114L47.1236 49.5477L58.5969 69.4271C58.7678 69.7116 58.8804 70.0274 58.928 70.3559C58.9756 70.6844 58.9573 71.0192 58.8742 71.3405C58.7911 71.6619 58.6448 71.9635 58.4438 72.2278C58.2429 72.492 57.9914 72.7136 57.7039 72.8796C57.4164 73.0455 57.0987 73.1526 56.7694 73.1945C56.4401 73.2364 56.1057 73.2123 55.7859 73.1236C55.466 73.0349 55.1669 72.8834 54.9062 72.6779C54.6455 72.4724 54.4284 72.217 54.2674 71.9267L42.8353 52.1256L38.9795 54.4416C36.3515 56.0643 33.188 56.5808 30.1803 55.8781C29.216 55.621 28.3027 55.2012 27.4796 54.6368C26.2206 53.7864 25.2351 52.5891 24.6426 51.1901C24.05 49.791 23.8758 48.2502 24.141 46.7542C24.5198 44.363 25.3247 42.0593 26.5174 39.9525L27.6932 37.612C27.9987 37.0462 28.1543 36.4117 28.1454 35.7687C28.1365 35.1258 27.9633 34.4958 27.6422 33.9387L23.9474 27.5497C23.6515 27.0846 23.1999 26.7398 22.6733 26.5768C22.4398 26.5137 22.1961 26.4978 21.9563 26.53C21.7166 26.5622 21.4857 26.6419 21.2772 26.7643L19.7279 27.6588C18.428 28.4671 16.8826 28.7857 15.369 28.5576C13.8553 28.3294 12.4725 27.5693 11.4687 26.4137C10.8892 25.7133 10.4696 24.8948 10.239 24.0154C10.0084 23.1361 9.9724 22.217 10.1335 21.3223C10.2946 20.4276 10.649 19.5788 11.1719 18.8352C11.6948 18.0915 12.3736 17.4709 13.161 17.0165L13.1636 17.0069Z" fill="#E24412"/>
<path d="M58.5969 69.4271L47.1236 49.5477L42.8353 52.1257L54.2674 71.9267C54.4284 72.2171 54.6456 72.4724 54.9063 72.6779C55.167 72.8834 55.466 73.0349 55.7859 73.1236C56.1058 73.2123 56.4401 73.2364 56.7694 73.1945C57.0987 73.1527 57.4164 73.0456 57.7039 72.8796C57.9914 72.7136 58.2429 72.4921 58.4439 72.2278C58.6448 71.9636 58.7911 71.662 58.8742 71.3406C58.9574 71.0192 58.9757 70.6845 58.928 70.3559C58.8804 70.0274 58.7679 69.7117 58.5969 69.4271Z" fill="#031A2C"/>
</g>
<defs>
<clipPath id="clip0_275_485">
<rect width="60" height="60" fill="white" transform="translate(15.7869 0.25766) rotate(15)"/>
</clipPath>
</defs>
</svg>
