<svg width="107" height="42" viewBox="0 0 107 42" fill="none" xmlns="http://www.w3.org/2000/svg">
<path d="M2.63916 2C10.8026 2.84359 18.5793 4.13906 26.4887 6.29351C38.302 9.51134 50.4055 11.5693 62.2144 14.7772C75.5269 18.3935 89.0294 20.9061 102.382 24.3051C102.736 24.3951 105.275 24.9366 104.594 25.7042C104.018 26.3527 102.572 26.4031 101.832 26.4796C95.2382 27.1618 88.5198 27.0731 81.8788 26.9416C63.9812 26.5873 45.2601 24.7617 27.7089 28.2938C26.5762 28.5218 17.8587 32.326 17.9405 32.4054C18.2402 32.6962 20.4875 32.0873 20.9019 32.053C28.0182 31.4649 34.97 32.3363 42.0837 33.0714C52.679 34.1663 63.5105 34.7816 73.9274 37.057C77.0767 37.7449 80.7895 38.3938 83.5368 39.9887" stroke="#E24412" stroke-width="4" stroke-linecap="round"/>
</svg>
