<svg width="291" height="261" viewBox="0 0 291 261" fill="none" xmlns="http://www.w3.org/2000/svg">
<path d="M277.057 55.404L263.989 50.5044L258.999 37.0375C257.981 33.9437 254.691 32.2709 251.649 33.3068C249.922 33.8948 248.559 35.2736 247.981 37.0375L243.047 50.3784L229.936 55.404C226.895 56.4399 225.25 59.7856 226.268 62.8793C226.846 64.6362 228.202 66.0221 229.936 66.61L243.17 71.6776L247.981 84.9625C248.559 86.7194 249.915 88.1052 251.649 88.6932C254.691 89.7291 257.981 88.0562 258.999 84.9625L263.865 71.5516L277.064 66.61C278.792 66.0221 280.154 64.6432 280.732 62.8793C281.751 59.7856 280.099 56.4399 277.057 55.404Z" fill="#C0CACC"/>
<ellipse cx="179" cy="32.5" rx="6" ry="6.5" fill="#C0CACC"/>
<ellipse cx="251.5" cy="115" rx="6.5" ry="6" fill="#C0CACC"/>
<circle cx="221.5" cy="5.5" r="5.5" fill="#C0CACC"/>
<ellipse cx="224" cy="126.5" rx="5" ry="5.5" fill="#C0CACC"/>
<circle cx="207" cy="43" r="4" fill="#C0CACC"/>
<ellipse cx="254" cy="143.5" rx="4" ry="3.5" fill="#C0CACC"/>
<circle cx="287" cy="136" r="4" fill="#C0CACC"/>
<g clip-path="url(#clip0_346_2235)">
<path d="M196.162 93.4083C199.032 93.4083 201.602 95.1673 202.586 97.8024C203.57 100.438 202.763 103.4 200.57 105.206L184.409 118.094L191.092 138.025C192.008 140.72 191.078 143.689 188.776 145.428C186.466 147.161 183.302 147.281 180.876 145.736L162.064 133.744L143.56 145.87C142.405 146.625 141.08 147 139.754 147C138.312 147 136.863 146.559 135.654 145.669C133.331 143.97 132.36 141.014 133.235 138.312L139.658 118.148L123.416 105.213C121.229 103.4 120.429 100.444 121.42 97.8091C122.411 95.1807 124.974 93.4284 127.837 93.4284H148.33L155.586 74.3539C156.584 71.7389 159.14 70 161.989 70C164.839 70 167.394 71.7322 168.392 74.3539L175.649 93.4284H196.149L196.162 93.4083Z" fill="#C0CACC"/>
</g>
<path d="M53.8777 242.609L47.011 240.077L44.3895 233.119C43.8543 231.521 42.1259 230.657 40.5276 231.192C39.62 231.496 38.904 232.208 38.6003 233.119L36.0077 240.012L29.1193 242.609C27.521 243.144 26.6568 244.873 27.1919 246.471C27.4957 247.379 28.208 248.095 29.1193 248.399L36.0727 251.017L38.6003 257.881C38.904 258.788 39.6164 259.504 40.5276 259.808C42.1259 260.343 43.8543 259.479 44.3895 257.881L46.9459 250.952L53.8814 248.399C54.789 248.095 55.5049 247.382 55.8087 246.471C56.3438 244.873 55.476 243.144 53.8777 242.609Z" fill="#C0CACC"/>
<circle cx="2.5" cy="255.5" r="2.5" fill="#C0CACC"/>
<circle cx="9" cy="231" r="4" fill="#C0CACC"/>
<defs>
<clipPath id="clip0_346_2235">
<rect width="82" height="77" fill="white" transform="translate(121 70)"/>
</clipPath>
</defs>
</svg>
