<svg width="44" height="44" viewBox="0 0 44 44" xmlns="http://www.w3.org/2000/svg">
<path d="M36.9556 11.6775C36.4716 16.7783 34.3689 29.1606 33.3014 34.8745C32.8497 37.2945 31.957 38.1039 31.0965 38.1819C29.2224 38.354 27.8 36.9423 25.985 35.7538C23.1455 33.8931 21.5402 32.7342 18.7841 30.9165C15.5978 28.8165 17.6628 27.6629 19.4778 25.778C19.9538 25.2833 28.2087 17.7732 28.37 17.0929C28.3888 17.0069 28.4103 16.6896 28.2194 16.5229C28.0285 16.3562 27.7516 16.4126 27.5526 16.4583C27.2676 16.5229 22.7314 19.521 13.9414 25.4527C12.6534 26.3373 11.4865 26.7675 10.4405 26.746C9.28965 26.7218 7.074 26.0953 5.42571 25.5575C3.40636 24.9014 1.7984 24.5519 1.93823 23.4387C2.01083 22.8579 2.80943 22.2636 4.33672 21.6559C13.7424 17.5581 20.0156 14.8558 23.1536 13.549C32.1156 9.82215 33.9763 9.17413 35.1917 9.15262C36.7136 9.13111 37.0793 10.3868 36.9556 11.6775Z" />
</svg>
