<svg width="44" height="44" viewBox="0 0 44 44" fill="none" xmlns="http://www.w3.org/2000/svg">
<path fill-rule="evenodd" clip-rule="evenodd" d="M36.9556 11.6775C36.4716 16.7783 34.3689 29.1606 33.3014 34.8745C32.8496 37.2945 31.9569 38.1039 31.0965 38.1819C29.2223 38.354 27.7999 36.9423 25.9849 35.7538C23.1454 33.8931 21.5402 32.7342 18.7841 30.9165C15.5977 28.8165 17.6628 27.6629 19.4778 25.778C19.9537 25.2833 28.2086 17.7732 28.3699 17.0929C28.3888 17.0069 28.4103 16.6896 28.2194 16.5229C28.0285 16.3562 27.7515 16.4126 27.5525 16.4583C27.2675 16.5229 22.7313 19.521 13.9414 25.4527C12.6534 26.3373 11.4864 26.7675 10.4404 26.746C9.28959 26.7218 7.07394 26.0953 5.42565 25.5575C3.4063 24.9014 1.79834 24.5519 1.93816 23.4387C2.01076 22.8579 2.80937 22.2636 4.33665 21.6559C13.7424 17.5581 20.0156 14.8558 23.1535 13.549C32.1156 9.82215 33.9763 9.17413 35.1917 9.15262C36.7136 9.13111 37.0793 10.3868 36.9556 11.6775Z" fill="#F7F2EF"/>
</svg>
