<svg width="45" height="45" viewBox="0 0 45 45" fill="none" xmlns="http://www.w3.org/2000/svg">
<path d="M38.4882 19.0833C35.2203 19.0833 32.1907 18.0383 29.7188 16.263V29.0735C29.7188 35.4718 24.5136 40.6754 18.1168 40.6754C15.6449 40.6754 13.3517 39.8962 11.4679 38.5732C8.47653 36.4725 6.51486 32.9983 6.51486 29.0735C6.51486 22.6751 11.72 17.47 18.1183 17.47C18.65 17.47 19.1694 17.5143 19.6812 17.583V19.0757V24.018C19.1862 23.8637 18.6638 23.7736 18.1183 23.7736C15.1972 23.7736 12.82 26.1508 12.82 29.0735C12.82 31.1085 13.975 32.8761 15.6617 33.7637C16.3965 34.1503 17.2322 34.3718 18.1199 34.3718C20.9738 34.3718 23.3021 32.1015 23.409 29.2721L23.4136 4.01025H29.7172C29.7172 4.5572 29.7707 5.09039 29.8654 5.60984C30.31 8.0115 31.7354 10.0725 33.7108 11.3604C35.0858 12.2572 36.7267 12.7812 38.4867 12.7812L38.4882 19.0833Z" fill="#031A2C"/>
</svg>
