<svg width="72" height="72" viewBox="0 0 72 72" fill="none" xmlns="http://www.w3.org/2000/svg">
<g clip-path="url(#clip0_262_588)">
<path d="M66 43.611V39C66 32.382 60.618 27 54 27C47.382 27 42 32.382 42 39V43.611C38.415 45.69 36 49.569 36 54V60C36 66.618 41.382 72 48 72H60C66.618 72 72 66.618 72 60V54C72 49.569 69.585 45.69 66 43.611ZM54 61.5C51.516 61.5 49.5 59.484 49.5 57C49.5 54.516 51.516 52.5 54 52.5C56.484 52.5 58.5 54.516 58.5 57C58.5 59.484 56.484 61.5 54 61.5ZM60 42H48V39C48 35.691 50.691 33 54 33C57.309 33 60 35.691 60 39V42ZM24 36C33.927 36 42 27.927 42 18C42 8.073 33.927 0 24 0C14.073 0 6 8.073 6 18C6 27.927 14.073 36 24 36ZM30 60C30 64.605 31.74 68.814 34.596 72H3C1.344 72 0 70.656 0 69V66.813C0 54.468 8.979 43.533 21.249 42.156C24.129 41.832 26.922 42.024 29.547 42.648C31.395 43.086 32.208 45.165 31.458 46.908C30.522 49.086 30 51.483 30 54V60Z" fill="#C0CACC"/>
</g>
<defs>
<clipPath id="clip0_262_588">
<rect width="72" height="72" fill="white"/>
</clipPath>
</defs>
</svg>
